<svg xmlns="http://www.w3.org/2000/svg" version="1.1" xmlns:xlink="http://www.w3.org/1999/xlink" xmlns:svgjs="http://svgjs.com/svgjs" width="1440" height="560" preserveAspectRatio="none" viewBox="0 0 1440 560"><g mask="url(&quot;#SvgjsMask1018&quot;)" fill="none"><rect width="1440" height="560" x="0" y="0" fill="#0e2a47"></rect><path d="M681.59 650.94C789.42 627.3 759.2 344.31 999.12 344.09 1239.05 343.87 1468.45 532.46 1634.19 534.49" stroke="rgba(51,121,194,0.58)" stroke-width="2"></path><path d="M324.1 564.37C506.05 559.71 642.31 306.44 1002.18 299.28 1362.04 292.12 1502.18 83.55 1680.25 80.88" stroke="rgba(51,121,194,0.58)" stroke-width="2"></path><path d="M552.78 580.03C704.95 573.53 796.94 333.4 1103.29 319.05 1409.63 304.7 1499.59 46.94 1653.79 39.05" stroke="rgba(51,121,194,0.58)" stroke-width="2"></path><path d="M721.99 615.67C853.79 605.04 913.9 357.69 1173.27 339.85 1432.65 322.01 1496.9 106.43 1624.56 99.05" stroke="rgba(51,121,194,0.58)" stroke-width="2"></path><path d="M617.7 564.7C766.33 536.11 834.06 160.68 1066.66 158.53 1299.26 156.38 1396.29 318.46 1515.62 320.93" stroke="rgba(51,121,194,0.58)" stroke-width="2"></path></g><defs><mask id="SvgjsMask1018"><rect width="1440" height="560" fill="#ffffff"></rect></mask></defs></svg>