<svg xmlns="http://www.w3.org/2000/svg" version="1.1" xmlns:xlink="http://www.w3.org/1999/xlink" xmlns:svgjs="http://svgjs.com/svgjs" width="1440" height="560" preserveAspectRatio="none" viewBox="0 0 1440 560"><g mask="url(&quot;#SvgjsMask1028&quot;)" fill="none"><rect width="1440" height="560" x="0" y="0" fill="rgba(7, 46, 75, 1)"></rect><path d="M571.05 71.17L571.05 73.49L580.16 73.49L580.16 71.17zM576.03 72.33 a4.13 4.13 0 1 0 8.26 0 a4.13 4.13 0 1 0 -8.26 0zM568.11 88.28L567.22 90.43L585.5 98L586.4 95.85zM581.82 96.93 a4.13 4.13 0 1 0 8.26 0 a4.13 4.13 0 1 0 -8.26 0zM558.85 102.96L557.2 104.61L567.81 115.22L569.46 113.57zM564.51 114.4 a4.13 4.13 0 1 0 8.26 0 a4.13 4.13 0 1 0 -8.26 0zM544.67 112.98L542.52 113.87L548.88 129.23L551.03 128.34zM545.83 128.79 a4.13 4.13 0 1 0 8.26 0 a4.13 4.13 0 1 0 -8.26 0zM527.74 116.81L525.41 116.81L525.41 122.78L527.74 122.78zM522.44 122.78 a4.13 4.13 0 1 0 8.26 0 a4.13 4.13 0 1 0 -8.26 0zM510.63 113.87L508.47 112.98L503.58 124.8L505.73 125.69zM500.52 125.24 a4.13 4.13 0 1 0 8.26 0 a4.13 4.13 0 1 0 -8.26 0zM495.94 104.61L494.29 102.96L484.13 113.13L485.77 114.77zM480.82 113.95 a4.13 4.13 0 1 0 8.26 0 a4.13 4.13 0 1 0 -8.26 0zM485.92 90.43L485.03 88.28L477.78 91.28L478.67 93.43zM474.09 92.36 a4.13 4.13 0 1 0 8.26 0 a4.13 4.13 0 1 0 -8.26 0zM482.09 73.49L482.09 71.17L469.29 71.17L469.29 73.49zM465.16 72.33 a4.13 4.13 0 1 0 8.26 0 a4.13 4.13 0 1 0 -8.26 0zM485.03 56.38L485.92 54.23L470.31 47.76L469.42 49.92zM465.73 48.84 a4.13 4.13 0 1 0 8.26 0 a4.13 4.13 0 1 0 -8.26 0zM494.29 41.7L495.94 40.05L491.58 35.69L489.93 37.34zM486.63 36.51 a4.13 4.13 0 1 0 8.26 0 a4.13 4.13 0 1 0 -8.26 0zM508.47 31.68L510.63 30.79L505.74 19L503.59 19.89zM500.54 19.45 a4.13 4.13 0 1 0 8.26 0 a4.13 4.13 0 1 0 -8.26 0zM525.41 27.85L527.74 27.85L527.74 21.01L525.41 21.01zM522.44 21.01 a4.13 4.13 0 1 0 8.26 0 a4.13 4.13 0 1 0 -8.26 0zM542.52 30.79L544.67 31.68L551.01 16.38L548.85 15.49zM545.8 15.94 a4.13 4.13 0 1 0 8.26 0 a4.13 4.13 0 1 0 -8.26 0zM557.2 40.05L558.85 41.7L564.6 35.95L562.96 34.3zM559.65 35.12 a4.13 4.13 0 1 0 8.26 0 a4.13 4.13 0 1 0 -8.26 0zM567.22 54.23L568.11 56.38L583.24 50.12L582.34 47.97zM578.66 49.04 a4.13 4.13 0 1 0 8.26 0 a4.13 4.13 0 1 0 -8.26 0zM482.07 72.33 a44.5 44.5 0 1 0 89 0 a44.5 44.5 0 1 0 -89 0z" fill="#488fdb"></path><path d="M487.5 93.63 A43.496 43.496 0 0 1 527.57 27.85M527.57 27.85 A88.992 88.992 0 0 0 487.5 93.63" fill="#2672c3" fill-rule="nonzero"></path><path d="M537.74 96.23 a8.9 8.9 0 1 0 17.8 0 a8.9 8.9 0 1 0 -17.8 0zM493.07 45.79 a6.67 6.67 0 1 0 13.34 0 a6.67 6.67 0 1 0 -13.34 0zM499.95 103.63 a7.56 7.56 0 1 0 15.12 0 a7.56 7.56 0 1 0 -15.12 0zM516.74 35.12 a7.12 7.12 0 1 0 14.24 0 a7.12 7.12 0 1 0 -14.24 0zM529.72 79.14 a3.56 3.56 0 1 0 7.12 0 a3.56 3.56 0 1 0 -7.12 0zM542.97 68.63 a7.56 7.56 0 1 0 15.12 0 a7.56 7.56 0 1 0 -15.12 0zM537.79 44.52 a2.67 2.67 0 1 0 5.34 0 a2.67 2.67 0 1 0 -5.34 0zM483.73 61.46 a3.56 3.56 0 1 0 7.12 0 a3.56 3.56 0 1 0 -7.12 0zM505.65 61.75 a2.22 2.22 0 1 0 4.44 0 a2.22 2.22 0 1 0 -4.44 0zM492.68 83.04 a5.78 5.78 0 1 0 11.56 0 a5.78 5.78 0 1 0 -11.56 0z" fill="#2672c3" fill-rule="nonzero"></path><path d="M1082.57 155.93L1082.57 159.66L1109.37 159.66L1109.37 155.93zM1102.77 157.79 a6.6 6.6 0 1 0 13.2 0 a6.6 6.6 0 1 0 -13.2 0zM1077.86 183.31L1076.43 186.75L1106.99 199.4L1108.41 195.96zM1101.1 197.68 a6.6 6.6 0 1 0 13.2 0 a6.6 6.6 0 1 0 -13.2 0zM1063.04 206.8L1060.4 209.43L1079.02 228.05L1081.66 225.42zM1073.74 226.73 a6.6 6.6 0 1 0 13.2 0 a6.6 6.6 0 1 0 -13.2 0zM1040.35 222.83L1036.91 224.26L1045.93 246.04L1049.38 244.62zM1041.06 245.33 a6.6 6.6 0 1 0 13.2 0 a6.6 6.6 0 1 0 -13.2 0zM1013.26 228.96L1009.53 228.96L1009.53 245.16L1013.26 245.16zM1004.8 245.16 a6.6 6.6 0 1 0 13.2 0 a6.6 6.6 0 1 0 -13.2 0zM985.88 224.26L982.44 222.83L975.03 240.72L978.47 242.14zM970.15 241.43 a6.6 6.6 0 1 0 13.2 0 a6.6 6.6 0 1 0 -13.2 0zM962.39 209.43L959.75 206.8L946.45 220.1L949.09 222.73zM941.17 221.42 a6.6 6.6 0 1 0 13.2 0 a6.6 6.6 0 1 0 -13.2 0zM946.36 186.75L944.93 183.31L920.66 193.36L922.09 196.8zM914.77 195.08 a6.6 6.6 0 1 0 13.2 0 a6.6 6.6 0 1 0 -13.2 0zM940.23 159.66L940.23 155.93L914.98 155.93L914.98 159.66zM908.38 157.79 a6.6 6.6 0 1 0 13.2 0 a6.6 6.6 0 1 0 -13.2 0zM944.93 132.28L946.36 128.83L936.34 124.69L934.92 128.13zM929.03 126.41 a6.6 6.6 0 1 0 13.2 0 a6.6 6.6 0 1 0 -13.2 0zM959.75 108.79L962.39 106.15L946.08 89.84L943.44 92.47zM938.16 91.15 a6.6 6.6 0 1 0 13.2 0 a6.6 6.6 0 1 0 -13.2 0zM982.44 92.75L985.88 91.33L978.76 74.14L975.32 75.57zM970.44 74.86 a6.6 6.6 0 1 0 13.2 0 a6.6 6.6 0 1 0 -13.2 0zM1009.53 86.62L1013.26 86.62L1013.26 52.78L1009.53 52.78zM1004.8 52.78 a6.6 6.6 0 1 0 13.2 0 a6.6 6.6 0 1 0 -13.2 0zM1036.91 91.33L1040.35 92.75L1049.26 71.25L1045.82 69.82zM1040.94 70.53 a6.6 6.6 0 1 0 13.2 0 a6.6 6.6 0 1 0 -13.2 0zM1060.4 106.15L1063.04 108.79L1081.79 90.03L1079.16 87.4zM1073.87 88.71 a6.6 6.6 0 1 0 13.2 0 a6.6 6.6 0 1 0 -13.2 0zM1076.43 128.83L1077.86 132.28L1104.53 121.23L1103.11 117.79zM1097.22 119.51 a6.6 6.6 0 1 0 13.2 0 a6.6 6.6 0 1 0 -13.2 0zM940.21 157.79 a71.19 71.19 0 1 0 142.38 0 a71.19 71.19 0 1 0 -142.38 0z" fill="#488fdb"></path><path d="M1045.45 95.27 A70.1936 70.1936 0 0 1 1048.64 218.47M1048.64 218.47 A142.3872 142.3872 0 0 0 1045.45 95.27" fill="#2672c3" fill-rule="nonzero"></path><path d="M991.55 130.86 a14.24 14.24 0 1 0 28.48 0 a14.24 14.24 0 1 0 -28.48 0zM1034.63 191.01 a14.24 14.24 0 1 0 28.48 0 a14.24 14.24 0 1 0 -28.48 0zM1071.77 137.1 a3.56 3.56 0 1 0 7.12 0 a3.56 3.56 0 1 0 -7.12 0zM1032.93 152.13 a10.68 10.68 0 1 0 21.36 0 a10.68 10.68 0 1 0 -21.36 0zM989.39 101.99 a2.85 2.85 0 1 0 5.7 0 a2.85 2.85 0 1 0 -5.7 0zM984.93 213.43 a13.53 13.53 0 1 0 27.06 0 a13.53 13.53 0 1 0 -27.06 0zM941.12 151.1 a8.54 8.54 0 1 0 17.08 0 a8.54 8.54 0 1 0 -17.08 0zM1074.96 170.78 a2.85 2.85 0 1 0 5.7 0 a2.85 2.85 0 1 0 -5.7 0zM946.97 185.23 a7.83 7.83 0 1 0 15.66 0 a7.83 7.83 0 1 0 -15.66 0zM1035.69 117.3 a9.26 9.26 0 1 0 18.52 0 a9.26 9.26 0 1 0 -18.52 0z" fill="#2672c3" fill-rule="nonzero"></path><path d="M1233.67 450.94L1233.67 454.2L1241.85 454.2L1241.85 450.94zM1236.07 452.57 a5.78 5.78 0 1 0 11.56 0 a5.78 5.78 0 1 0 -11.56 0zM1229.55 474.89L1228.3 477.9L1242 483.58L1243.25 480.57zM1236.85 482.07 a5.78 5.78 0 1 0 11.56 0 a5.78 5.78 0 1 0 -11.56 0zM1216.58 495.45L1214.27 497.75L1235.71 519.19L1238.02 516.89zM1231.09 518.04 a5.78 5.78 0 1 0 11.56 0 a5.78 5.78 0 1 0 -11.56 0zM1196.73 509.48L1193.72 510.72L1199.72 525.22L1202.73 523.97zM1195.45 524.6 a5.78 5.78 0 1 0 11.56 0 a5.78 5.78 0 1 0 -11.56 0zM1173.02 514.84L1169.76 514.84L1169.76 539.48L1173.02 539.48zM1165.61 539.48 a5.78 5.78 0 1 0 11.56 0 a5.78 5.78 0 1 0 -11.56 0zM1149.07 510.72L1146.05 509.48L1140.1 523.86L1143.11 525.11zM1135.82 524.48 a5.78 5.78 0 1 0 11.56 0 a5.78 5.78 0 1 0 -11.56 0zM1128.51 497.75L1126.21 495.45L1117.2 504.45L1119.51 506.75zM1112.58 505.6 a5.78 5.78 0 1 0 11.56 0 a5.78 5.78 0 1 0 -11.56 0zM1114.48 477.9L1113.24 474.89L1089.67 484.65L1090.92 487.67zM1084.51 486.16 a5.78 5.78 0 1 0 11.56 0 a5.78 5.78 0 1 0 -11.56 0zM1109.12 454.2L1109.12 450.94L1098.9 450.94L1098.9 454.2zM1093.12 452.57 a5.78 5.78 0 1 0 11.56 0 a5.78 5.78 0 1 0 -11.56 0zM1113.24 430.24L1114.48 427.23L1091.46 417.69L1090.21 420.71zM1085.06 419.2 a5.78 5.78 0 1 0 11.56 0 a5.78 5.78 0 1 0 -11.56 0zM1126.21 409.69L1128.51 407.38L1110.87 389.74L1108.56 392.04zM1103.94 390.89 a5.78 5.78 0 1 0 11.56 0 a5.78 5.78 0 1 0 -11.56 0zM1146.05 395.66L1149.07 394.41L1141.03 375.01L1138.02 376.26zM1133.75 375.63 a5.78 5.78 0 1 0 11.56 0 a5.78 5.78 0 1 0 -11.56 0zM1169.76 390.29L1173.02 390.29L1173.02 369.49L1169.76 369.49zM1165.61 369.49 a5.78 5.78 0 1 0 11.56 0 a5.78 5.78 0 1 0 -11.56 0zM1193.72 394.41L1196.73 395.66L1199.76 388.34L1196.75 387.09zM1192.47 387.72 a5.78 5.78 0 1 0 11.56 0 a5.78 5.78 0 1 0 -11.56 0zM1214.27 407.38L1216.58 409.69L1237.53 388.73L1235.22 386.43zM1230.6 387.58 a5.78 5.78 0 1 0 11.56 0 a5.78 5.78 0 1 0 -11.56 0zM1228.3 427.23L1229.55 430.24L1257.95 418.48L1256.7 415.47zM1251.55 416.97 a5.78 5.78 0 1 0 11.56 0 a5.78 5.78 0 1 0 -11.56 0zM1109.1 452.57 a62.29 62.29 0 1 0 124.58 0 a62.29 62.29 0 1 0 -124.58 0z" fill="#488fdb"></path><path d="M1185.59 391.91 A61.294399999999996 61.294399999999996 0 0 1 1216.91 495.09M1216.91 495.09 A124.58879999999999 124.58879999999999 0 0 0 1185.59 391.91" fill="#2672c3" fill-rule="nonzero"></path><path d="M1156.18 442.95 a12.46 12.46 0 1 0 24.92 0 a12.46 12.46 0 1 0 -24.92 0zM1178.45 488.8 a12.46 12.46 0 1 0 24.92 0 a12.46 12.46 0 1 0 -24.92 0zM1194.79 433.83 a12.46 12.46 0 1 0 24.92 0 a12.46 12.46 0 1 0 -24.92 0zM1173.14 414.46 a4.36 4.36 0 1 0 8.72 0 a4.36 4.36 0 1 0 -8.72 0zM1160.1 504.6 a4.98 4.98 0 1 0 9.96 0 a4.98 4.98 0 1 0 -9.96 0zM1111.67 438.94 a12.46 12.46 0 1 0 24.92 0 a12.46 12.46 0 1 0 -24.92 0zM1123.08 474.2 a11.84 11.84 0 1 0 23.68 0 a11.84 11.84 0 1 0 -23.68 0zM1135.27 406.42 a8.1 8.1 0 1 0 16.2 0 a8.1 8.1 0 1 0 -16.2 0zM1223.46 473.56 a3.11 3.11 0 1 0 6.22 0 a3.11 3.11 0 1 0 -6.22 0zM1206.34 463.04 a3.74 3.74 0 1 0 7.48 0 a3.74 3.74 0 1 0 -7.48 0z" fill="#2672c3" fill-rule="nonzero"></path><path d="M205.77 421.85L205.77 425.58L231.48 425.58L231.48 421.85zM224.88 423.72 a6.6 6.6 0 1 0 13.2 0 a6.6 6.6 0 1 0 -13.2 0zM201.07 449.23L199.64 452.67L210.95 457.36L212.38 453.91zM205.06 455.64 a6.6 6.6 0 1 0 13.2 0 a6.6 6.6 0 1 0 -13.2 0zM186.24 472.72L183.61 475.36L200.29 492.04L202.93 489.4zM195.01 490.72 a6.6 6.6 0 1 0 13.2 0 a6.6 6.6 0 1 0 -13.2 0zM163.56 488.76L160.12 490.18L165.99 504.36L169.43 502.94zM161.11 503.65 a6.6 6.6 0 1 0 13.2 0 a6.6 6.6 0 1 0 -13.2 0zM136.47 494.89L132.74 494.89L132.74 529.64L136.47 529.64zM128 529.64 a6.6 6.6 0 1 0 13.2 0 a6.6 6.6 0 1 0 -13.2 0zM109.09 490.18L105.65 488.76L95.85 512.41L99.29 513.83zM90.97 513.12 a6.6 6.6 0 1 0 13.2 0 a6.6 6.6 0 1 0 -13.2 0zM85.6 475.36L82.96 472.72L73.23 482.45L75.87 485.09zM67.95 483.77 a6.6 6.6 0 1 0 13.2 0 a6.6 6.6 0 1 0 -13.2 0zM69.56 452.67L68.14 449.23L53.28 455.38L54.71 458.83zM47.39 457.11 a6.6 6.6 0 1 0 13.2 0 a6.6 6.6 0 1 0 -13.2 0zM63.43 425.58L63.43 421.85L50.8 421.85L50.8 425.58zM44.2 423.72 a6.6 6.6 0 1 0 13.2 0 a6.6 6.6 0 1 0 -13.2 0zM68.14 398.2L69.56 394.76L61.12 391.26L59.69 394.71zM53.81 392.98 a6.6 6.6 0 1 0 13.2 0 a6.6 6.6 0 1 0 -13.2 0zM82.96 374.71L85.6 372.08L62.45 348.92L59.81 351.56zM54.53 350.24 a6.6 6.6 0 1 0 13.2 0 a6.6 6.6 0 1 0 -13.2 0zM105.65 358.68L109.09 357.25L105.19 347.83L101.74 349.26zM96.86 348.54 a6.6 6.6 0 1 0 13.2 0 a6.6 6.6 0 1 0 -13.2 0zM132.74 352.55L136.47 352.55L136.47 322L132.74 322zM128 322 a6.6 6.6 0 1 0 13.2 0 a6.6 6.6 0 1 0 -13.2 0zM160.12 357.25L163.56 358.68L173.52 334.62L170.08 333.19zM165.2 333.91 a6.6 6.6 0 1 0 13.2 0 a6.6 6.6 0 1 0 -13.2 0zM183.61 372.08L186.24 374.71L209.03 351.93L206.39 349.29zM201.11 350.61 a6.6 6.6 0 1 0 13.2 0 a6.6 6.6 0 1 0 -13.2 0zM199.64 394.76L201.07 398.2L218.78 390.87L217.35 387.42zM211.47 389.15 a6.6 6.6 0 1 0 13.2 0 a6.6 6.6 0 1 0 -13.2 0zM63.41 423.72 a71.19 71.19 0 1 0 142.38 0 a71.19 71.19 0 1 0 -142.38 0z" fill="#488fdb"></path><path d="M187.28 375.83 A70.1936 70.1936 0 0 1 149.88 493.25M149.88 493.25 A142.3872 142.3872 0 0 0 187.28 375.83" fill="#2672c3" fill-rule="nonzero"></path><path d="M115.25 407.5 a14.24 14.24 0 1 0 28.48 0 a14.24 14.24 0 1 0 -28.48 0zM183.05 460.37 a5.7 5.7 0 1 0 11.4 0 a5.7 5.7 0 1 0 -11.4 0zM126.92 450.24 a14.24 14.24 0 1 0 28.48 0 a14.24 14.24 0 1 0 -28.48 0zM184.37 430.56 a9.97 9.97 0 1 0 19.94 0 a9.97 9.97 0 1 0 -19.94 0zM123.33 359.76 a6.41 6.41 0 1 0 12.82 0 a6.41 6.41 0 1 0 -12.82 0zM65.58 414.95 a14.24 14.24 0 1 0 28.48 0 a14.24 14.24 0 1 0 -28.48 0zM167.6 393.04 a14.24 14.24 0 1 0 28.48 0 a14.24 14.24 0 1 0 -28.48 0zM86.14 382.9 a5.7 5.7 0 1 0 11.4 0 a5.7 5.7 0 1 0 -11.4 0zM72.35 455.92 a6.41 6.41 0 1 0 12.82 0 a6.41 6.41 0 1 0 -12.82 0zM166.72 477.52 a4.27 4.27 0 1 0 8.54 0 a4.27 4.27 0 1 0 -8.54 0z" fill="#2672c3" fill-rule="nonzero"></path><path d="M676.53 448.45L676.53 451.71L702.85 451.71L702.85 448.45zM697.07 450.08 a5.78 5.78 0 1 0 11.56 0 a5.78 5.78 0 1 0 -11.56 0zM672.42 472.4L671.17 475.42L684.21 480.82L685.46 477.81zM679.06 479.31 a5.78 5.78 0 1 0 11.56 0 a5.78 5.78 0 1 0 -11.56 0zM659.44 492.96L657.14 495.26L673.18 511.31L675.49 509zM668.56 510.16 a5.78 5.78 0 1 0 11.56 0 a5.78 5.78 0 1 0 -11.56 0zM639.6 506.99L636.58 508.23L647.4 534.34L650.41 533.1zM643.12 533.72 a5.78 5.78 0 1 0 11.56 0 a5.78 5.78 0 1 0 -11.56 0zM615.89 512.35L612.63 512.35L612.63 531.62L615.89 531.62zM608.48 531.62 a5.78 5.78 0 1 0 11.56 0 a5.78 5.78 0 1 0 -11.56 0zM591.93 508.23L588.92 506.99L585.12 516.16L588.13 517.41zM580.85 516.78 a5.78 5.78 0 1 0 11.56 0 a5.78 5.78 0 1 0 -11.56 0zM571.38 495.26L569.07 492.96L552.59 509.44L554.89 511.75zM547.96 510.59 a5.78 5.78 0 1 0 11.56 0 a5.78 5.78 0 1 0 -11.56 0zM557.35 475.42L556.1 472.4L545.36 476.85L546.6 479.87zM540.2 478.36 a5.78 5.78 0 1 0 11.56 0 a5.78 5.78 0 1 0 -11.56 0zM551.99 451.71L551.99 448.45L526.84 448.45L526.84 451.71zM521.06 450.08 a5.78 5.78 0 1 0 11.56 0 a5.78 5.78 0 1 0 -11.56 0zM556.1 427.75L557.35 424.74L545.06 419.65L543.81 422.66zM538.66 421.16 a5.78 5.78 0 1 0 11.56 0 a5.78 5.78 0 1 0 -11.56 0zM569.07 407.2L571.38 404.89L558.63 392.14L556.32 394.45zM551.7 393.29 a5.78 5.78 0 1 0 11.56 0 a5.78 5.78 0 1 0 -11.56 0zM588.92 393.17L591.93 391.92L587 380L583.98 381.25zM579.71 380.63 a5.78 5.78 0 1 0 11.56 0 a5.78 5.78 0 1 0 -11.56 0zM612.63 387.8L615.89 387.8L615.89 378.72L612.63 378.72zM608.48 378.72 a5.78 5.78 0 1 0 11.56 0 a5.78 5.78 0 1 0 -11.56 0zM636.58 391.92L639.6 393.17L642.72 385.62L639.71 384.37zM635.44 385 a5.78 5.78 0 1 0 11.56 0 a5.78 5.78 0 1 0 -11.56 0zM657.14 404.89L659.44 407.2L667.03 399.62L664.72 397.31zM660.09 398.46 a5.78 5.78 0 1 0 11.56 0 a5.78 5.78 0 1 0 -11.56 0zM671.17 424.74L672.42 427.75L697.05 417.55L695.81 414.53zM690.65 416.04 a5.78 5.78 0 1 0 11.56 0 a5.78 5.78 0 1 0 -11.56 0zM551.97 450.08 a62.29 62.29 0 1 0 124.58 0 a62.29 62.29 0 1 0 -124.58 0z" fill="#488fdb"></path><path d="M555.25 470.03 A61.294399999999996 61.294399999999996 0 0 1 626.36 388.97M626.36 388.97 A124.58879999999999 124.58879999999999 0 0 0 555.25 470.03" fill="#2672c3" fill-rule="nonzero"></path><path d="M614.99 485.86 a12.46 12.46 0 1 0 24.92 0 a12.46 12.46 0 1 0 -24.92 0zM638.63 398.92 a3.74 3.74 0 1 0 7.48 0 a3.74 3.74 0 1 0 -7.48 0zM623.85 428.23 a12.46 12.46 0 1 0 24.92 0 a12.46 12.46 0 1 0 -24.92 0zM640.78 456.37 a4.36 4.36 0 1 0 8.72 0 a4.36 4.36 0 1 0 -8.72 0zM666.35 447.46 a4.98 4.98 0 1 0 9.96 0 a4.98 4.98 0 1 0 -9.96 0zM590.93 452.22 a12.46 12.46 0 1 0 24.92 0 a12.46 12.46 0 1 0 -24.92 0zM584.55 499.64 a8.1 8.1 0 1 0 16.2 0 a8.1 8.1 0 1 0 -16.2 0zM598.92 394.29 a5.61 5.61 0 1 0 11.22 0 a5.61 5.61 0 1 0 -11.22 0zM564.75 420.16 a12.46 12.46 0 1 0 24.92 0 a12.46 12.46 0 1 0 -24.92 0zM557.08 472.42 a9.97 9.97 0 1 0 19.94 0 a9.97 9.97 0 1 0 -19.94 0z" fill="#2672c3" fill-rule="nonzero"></path><path d="M334.74 103.51L334.74 106.78L345.31 106.78L345.31 103.51zM339.53 105.14 a5.78 5.78 0 1 0 11.56 0 a5.78 5.78 0 1 0 -11.56 0zM330.62 127.47L329.37 130.48L345.22 137.04L346.47 134.03zM340.06 135.54 a5.78 5.78 0 1 0 11.56 0 a5.78 5.78 0 1 0 -11.56 0zM317.65 148.03L315.34 150.33L322.59 157.58L324.9 155.27zM317.97 156.43 a5.78 5.78 0 1 0 11.56 0 a5.78 5.78 0 1 0 -11.56 0zM297.8 162.05L294.79 163.3L304.78 187.41L307.79 186.17zM300.5 186.79 a5.78 5.78 0 1 0 11.56 0 a5.78 5.78 0 1 0 -11.56 0zM274.09 167.42L270.83 167.42L270.83 188.27L274.09 188.27zM266.68 188.27 a5.78 5.78 0 1 0 11.56 0 a5.78 5.78 0 1 0 -11.56 0zM250.14 163.3L247.13 162.05L241.21 176.34L244.22 177.58zM236.94 176.96 a5.78 5.78 0 1 0 11.56 0 a5.78 5.78 0 1 0 -11.56 0zM229.58 150.33L227.28 148.03L217.72 157.58L220.03 159.88zM213.1 158.73 a5.78 5.78 0 1 0 11.56 0 a5.78 5.78 0 1 0 -11.56 0zM215.56 130.48L214.31 127.47L203.92 131.77L205.17 134.78zM198.77 133.28 a5.78 5.78 0 1 0 11.56 0 a5.78 5.78 0 1 0 -11.56 0zM210.19 106.78L210.19 103.51L195.56 103.51L195.56 106.78zM189.78 105.14 a5.78 5.78 0 1 0 11.56 0 a5.78 5.78 0 1 0 -11.56 0zM214.31 82.82L215.56 79.81L200.14 73.42L198.89 76.43zM193.73 74.93 a5.78 5.78 0 1 0 11.56 0 a5.78 5.78 0 1 0 -11.56 0zM227.28 62.26L229.58 59.96L218.98 49.36L216.68 51.66zM212.05 50.51 a5.78 5.78 0 1 0 11.56 0 a5.78 5.78 0 1 0 -11.56 0zM247.13 48.24L250.14 46.99L245.68 36.22L242.66 37.46zM238.39 36.84 a5.78 5.78 0 1 0 11.56 0 a5.78 5.78 0 1 0 -11.56 0zM270.83 42.87L274.09 42.87L274.09 32.5L270.83 32.5zM266.68 32.5 a5.78 5.78 0 1 0 11.56 0 a5.78 5.78 0 1 0 -11.56 0zM294.79 46.99L297.8 48.24L302.54 36.81L299.52 35.56zM295.25 36.18 a5.78 5.78 0 1 0 11.56 0 a5.78 5.78 0 1 0 -11.56 0zM315.34 59.96L317.65 62.26L324.99 54.92L322.68 52.62zM318.06 53.77 a5.78 5.78 0 1 0 11.56 0 a5.78 5.78 0 1 0 -11.56 0zM329.37 79.81L330.62 82.82L347.76 75.72L346.51 72.71zM341.36 74.21 a5.78 5.78 0 1 0 11.56 0 a5.78 5.78 0 1 0 -11.56 0zM210.17 105.14 a62.29 62.29 0 1 0 124.58 0 a62.29 62.29 0 1 0 -124.58 0z" fill="#488fdb"></path><path d="M331.65 124.57 A61.294399999999996 61.294399999999996 0 0 1 226.13 146.79M226.13 146.79 A124.58879999999999 124.58879999999999 0 0 0 331.65 124.57" fill="#2672c3" fill-rule="nonzero"></path><path d="M232.06 149.25 a5.61 5.61 0 1 0 11.22 0 a5.61 5.61 0 1 0 -11.22 0zM278.08 61.67 a12.46 12.46 0 1 0 24.92 0 a12.46 12.46 0 1 0 -24.92 0zM256.69 108.78 a12.46 12.46 0 1 0 24.92 0 a12.46 12.46 0 1 0 -24.92 0zM212.18 90.57 a8.1 8.1 0 1 0 16.2 0 a8.1 8.1 0 1 0 -16.2 0zM289.23 124.9 a2.49 2.49 0 1 0 4.98 0 a2.49 2.49 0 1 0 -4.98 0zM256.22 148.98 a8.72 8.72 0 1 0 17.44 0 a8.72 8.72 0 1 0 -17.44 0zM287.45 144.27 a4.36 4.36 0 1 0 8.72 0 a4.36 4.36 0 1 0 -8.72 0zM308.81 144.11 a3.11 3.11 0 1 0 6.22 0 a3.11 3.11 0 1 0 -6.22 0zM305.48 117.41 a3.74 3.74 0 1 0 7.48 0 a3.74 3.74 0 1 0 -7.48 0zM260.67 74.43 a3.74 3.74 0 1 0 7.48 0 a3.74 3.74 0 1 0 -7.48 0z" fill="#2672c3" fill-rule="nonzero"></path><path d="M1407.47 205.86L1407.47 207.73L1418.96 207.73L1418.96 205.86zM1415.66 206.79 a3.3 3.3 0 1 0 6.6 0 a3.3 3.3 0 1 0 -6.6 0zM1405.11 219.55L1404.4 221.27L1411.25 224.11L1411.96 222.39zM1408.3 223.25 a3.3 3.3 0 1 0 6.6 0 a3.3 3.3 0 1 0 -6.6 0zM1397.7 231.3L1396.39 232.62L1406.43 242.66L1407.75 241.35zM1403.79 242 a3.3 3.3 0 1 0 6.6 0 a3.3 3.3 0 1 0 -6.6 0zM1386.36 239.31L1384.64 240.03L1390.97 255.32L1392.69 254.6zM1388.53 254.96 a3.3 3.3 0 1 0 6.6 0 a3.3 3.3 0 1 0 -6.6 0zM1372.81 242.38L1370.95 242.38L1370.95 254.26L1372.81 254.26zM1368.58 254.26 a3.3 3.3 0 1 0 6.6 0 a3.3 3.3 0 1 0 -6.6 0zM1359.13 240.03L1357.4 239.31L1351.38 253.86L1353.1 254.57zM1348.94 254.21 a3.3 3.3 0 1 0 6.6 0 a3.3 3.3 0 1 0 -6.6 0zM1347.38 232.62L1346.06 231.3L1336.77 240.59L1338.09 241.91zM1334.13 241.25 a3.3 3.3 0 1 0 6.6 0 a3.3 3.3 0 1 0 -6.6 0zM1339.36 221.27L1338.65 219.55L1325.2 225.12L1325.91 226.84zM1322.25 225.98 a3.3 3.3 0 1 0 6.6 0 a3.3 3.3 0 1 0 -6.6 0zM1336.3 207.73L1336.3 205.86L1330.81 205.86L1330.81 207.73zM1327.51 206.79 a3.3 3.3 0 1 0 6.6 0 a3.3 3.3 0 1 0 -6.6 0zM1338.65 194.04L1339.36 192.32L1333.93 190.07L1333.22 191.79zM1330.27 190.93 a3.3 3.3 0 1 0 6.6 0 a3.3 3.3 0 1 0 -6.6 0zM1346.06 182.29L1347.38 180.97L1337.85 171.45L1336.54 172.77zM1333.9 172.11 a3.3 3.3 0 1 0 6.6 0 a3.3 3.3 0 1 0 -6.6 0zM1357.4 174.27L1359.13 173.56L1352.69 158.02L1350.97 158.74zM1348.53 158.38 a3.3 3.3 0 1 0 6.6 0 a3.3 3.3 0 1 0 -6.6 0zM1370.95 171.21L1372.81 171.21L1372.81 154.98L1370.95 154.98zM1368.58 154.98 a3.3 3.3 0 1 0 6.6 0 a3.3 3.3 0 1 0 -6.6 0zM1384.64 173.56L1386.36 174.27L1391.79 161.16L1390.07 160.44zM1387.63 160.8 a3.3 3.3 0 1 0 6.6 0 a3.3 3.3 0 1 0 -6.6 0zM1396.39 180.97L1397.7 182.29L1402.11 177.89L1400.79 176.57zM1398.15 177.23 a3.3 3.3 0 1 0 6.6 0 a3.3 3.3 0 1 0 -6.6 0zM1404.4 192.32L1405.11 194.04L1417.89 188.74L1417.18 187.02zM1414.24 187.88 a3.3 3.3 0 1 0 6.6 0 a3.3 3.3 0 1 0 -6.6 0zM1336.28 206.79 a35.6 35.6 0 1 0 71.2 0 a35.6 35.6 0 1 0 -71.2 0z" fill="#488fdb"></path><path d="M1336.47 210.39 A34.5968 34.5968 0 0 1 1386.41 174.3M1386.41 174.3 A71.1936 71.1936 0 0 0 1336.47 210.39" fill="#2672c3" fill-rule="nonzero"></path><path d="M1375.26 225 a7.12 7.12 0 1 0 14.24 0 a7.12 7.12 0 1 0 -14.24 0zM1353.68 208.25 a7.12 7.12 0 1 0 14.24 0 a7.12 7.12 0 1 0 -14.24 0zM1394.46 184.53 a2.14 2.14 0 1 0 4.28 0 a2.14 2.14 0 1 0 -4.28 0zM1360.15 229.91 a4.27 4.27 0 1 0 8.54 0 a4.27 4.27 0 1 0 -8.54 0zM1371.08 178.32 a6.41 6.41 0 1 0 12.82 0 a6.41 6.41 0 1 0 -12.82 0zM1336.62 211.39 a1.42 1.42 0 1 0 2.84 0 a1.42 1.42 0 1 0 -2.84 0zM1349.37 180.36 a1.78 1.78 0 1 0 3.56 0 a1.78 1.78 0 1 0 -3.56 0zM1383.86 206.58 a5.34 5.34 0 1 0 10.68 0 a5.34 5.34 0 1 0 -10.68 0zM1343.65 223.29 a4.98 4.98 0 1 0 9.96 0 a4.98 4.98 0 1 0 -9.96 0zM1364.88 193.07 a1.78 1.78 0 1 0 3.56 0 a1.78 1.78 0 1 0 -3.56 0z" fill="#2672c3" fill-rule="nonzero"></path><path d="M405.59 492.53L405.59 494.4L415.93 494.4L415.93 492.53zM412.63 493.47 a3.3 3.3 0 1 0 6.6 0 a3.3 3.3 0 1 0 -6.6 0zM403.24 506.22L402.52 507.94L414.78 513.02L415.5 511.3zM411.84 512.16 a3.3 3.3 0 1 0 6.6 0 a3.3 3.3 0 1 0 -6.6 0zM395.83 517.97L394.51 519.29L406.93 531.71L408.25 530.39zM404.29 531.05 a3.3 3.3 0 1 0 6.6 0 a3.3 3.3 0 1 0 -6.6 0zM384.48 525.99L382.76 526.7L388.34 540.18L390.07 539.46zM385.91 539.82 a3.3 3.3 0 1 0 6.6 0 a3.3 3.3 0 1 0 -6.6 0zM370.94 529.05L369.07 529.05L369.07 544.22L370.94 544.22zM366.7 544.22 a3.3 3.3 0 1 0 6.6 0 a3.3 3.3 0 1 0 -6.6 0zM357.25 526.7L355.53 525.99L352.57 533.12L354.29 533.83zM350.13 533.47 a3.3 3.3 0 1 0 6.6 0 a3.3 3.3 0 1 0 -6.6 0zM345.5 519.29L344.18 517.97L337.64 524.52L338.95 525.83zM334.99 525.18 a3.3 3.3 0 1 0 6.6 0 a3.3 3.3 0 1 0 -6.6 0zM337.49 507.94L336.77 506.22L321.14 512.7L321.85 514.42zM318.2 513.56 a3.3 3.3 0 1 0 6.6 0 a3.3 3.3 0 1 0 -6.6 0zM334.42 494.4L334.42 492.53L321.96 492.53L321.96 494.4zM318.66 493.47 a3.3 3.3 0 1 0 6.6 0 a3.3 3.3 0 1 0 -6.6 0zM336.77 480.71L337.49 478.99L328.86 475.41L328.14 477.13zM325.2 476.27 a3.3 3.3 0 1 0 6.6 0 a3.3 3.3 0 1 0 -6.6 0zM344.18 468.96L345.5 467.64L341.54 463.69L340.22 465zM337.58 464.34 a3.3 3.3 0 1 0 6.6 0 a3.3 3.3 0 1 0 -6.6 0zM355.53 460.95L357.25 460.23L354.91 454.58L353.18 455.29zM350.74 454.94 a3.3 3.3 0 1 0 6.6 0 a3.3 3.3 0 1 0 -6.6 0zM369.07 457.88L370.94 457.88L370.94 449.01L369.07 449.01zM366.7 449.01 a3.3 3.3 0 1 0 6.6 0 a3.3 3.3 0 1 0 -6.6 0zM382.76 460.23L384.48 460.95L390.41 446.64L388.69 445.92zM386.25 446.28 a3.3 3.3 0 1 0 6.6 0 a3.3 3.3 0 1 0 -6.6 0zM394.51 467.64L395.83 468.96L405.64 459.15L404.32 457.83zM401.68 458.49 a3.3 3.3 0 1 0 6.6 0 a3.3 3.3 0 1 0 -6.6 0zM402.52 478.99L403.24 480.71L407.36 479L406.64 477.28zM403.7 478.14 a3.3 3.3 0 1 0 6.6 0 a3.3 3.3 0 1 0 -6.6 0zM334.4 493.47 a35.6 35.6 0 1 0 71.2 0 a35.6 35.6 0 1 0 -71.2 0z" fill="#488fdb"></path><path d="M359.57 527.5 A34.5968 34.5968 0 0 1 345.69 467.47M345.69 467.47 A71.1936 71.1936 0 0 0 359.57 527.5" fill="#2672c3" fill-rule="nonzero"></path><path d="M386.95 471.25 a4.63 4.63 0 1 0 9.26 0 a4.63 4.63 0 1 0 -9.26 0zM350.47 500.13 a7.12 7.12 0 1 0 14.24 0 a7.12 7.12 0 1 0 -14.24 0zM362.48 479.35 a7.12 7.12 0 1 0 14.24 0 a7.12 7.12 0 1 0 -14.24 0zM372.06 499.75 a3.2 3.2 0 1 0 6.4 0 a3.2 3.2 0 1 0 -6.4 0zM383.99 487.41 a4.63 4.63 0 1 0 9.26 0 a4.63 4.63 0 1 0 -9.26 0zM370.18 521.72 a6.41 6.41 0 1 0 12.82 0 a6.41 6.41 0 1 0 -12.82 0zM336.87 481.12 a2.49 2.49 0 1 0 4.98 0 a2.49 2.49 0 1 0 -4.98 0zM402.64 491.13 a1.42 1.42 0 1 0 2.84 0 a1.42 1.42 0 1 0 -2.84 0zM334.79 494.91 a1.42 1.42 0 1 0 2.84 0 a1.42 1.42 0 1 0 -2.84 0zM352.11 515.96 a1.78 1.78 0 1 0 3.56 0 a1.78 1.78 0 1 0 -3.56 0z" fill="#2672c3" fill-rule="nonzero"></path><path d="M1272.45 60.67L1272.45 62.53L1288.77 62.53L1288.77 60.67zM1285.47 61.6 a3.3 3.3 0 1 0 6.6 0 a3.3 3.3 0 1 0 -6.6 0zM1270.1 74.35L1269.39 76.08L1274.8 78.32L1275.52 76.6zM1271.86 77.46 a3.3 3.3 0 1 0 6.6 0 a3.3 3.3 0 1 0 -6.6 0zM1262.69 86.1L1261.37 87.42L1271.64 97.69L1272.96 96.37zM1269 97.03 a3.3 3.3 0 1 0 6.6 0 a3.3 3.3 0 1 0 -6.6 0zM1251.35 94.12L1249.63 94.83L1253.06 103.13L1254.79 102.41zM1250.62 102.77 a3.3 3.3 0 1 0 6.6 0 a3.3 3.3 0 1 0 -6.6 0zM1237.8 97.18L1235.94 97.18L1235.94 111.64L1237.8 111.64zM1233.57 111.64 a3.3 3.3 0 1 0 6.6 0 a3.3 3.3 0 1 0 -6.6 0zM1224.11 94.83L1222.39 94.12L1218.51 103.49L1220.23 104.21zM1216.07 103.85 a3.3 3.3 0 1 0 6.6 0 a3.3 3.3 0 1 0 -6.6 0zM1212.37 87.42L1211.05 86.1L1204.53 92.62L1205.85 93.94zM1201.89 93.28 a3.3 3.3 0 1 0 6.6 0 a3.3 3.3 0 1 0 -6.6 0zM1204.35 76.08L1203.64 74.35L1190.72 79.7L1191.44 81.43zM1187.78 80.57 a3.3 3.3 0 1 0 6.6 0 a3.3 3.3 0 1 0 -6.6 0zM1201.29 62.53L1201.29 60.67L1190.39 60.67L1190.39 62.53zM1187.09 61.6 a3.3 3.3 0 1 0 6.6 0 a3.3 3.3 0 1 0 -6.6 0zM1203.64 48.84L1204.35 47.12L1189.31 40.89L1188.6 42.61zM1185.65 41.75 a3.3 3.3 0 1 0 6.6 0 a3.3 3.3 0 1 0 -6.6 0zM1211.05 37.09L1212.37 35.78L1207.01 30.42L1205.7 31.74zM1203.06 31.08 a3.3 3.3 0 1 0 6.6 0 a3.3 3.3 0 1 0 -6.6 0zM1222.39 29.08L1224.11 28.37L1219.87 18.12L1218.15 18.83zM1215.71 18.48 a3.3 3.3 0 1 0 6.6 0 a3.3 3.3 0 1 0 -6.6 0zM1235.94 26.01L1237.8 26.01L1237.8 12.62L1235.94 12.62zM1233.57 12.62 a3.3 3.3 0 1 0 6.6 0 a3.3 3.3 0 1 0 -6.6 0zM1249.63 28.37L1251.35 29.08L1254.03 22.61L1252.31 21.9zM1249.87 22.25 a3.3 3.3 0 1 0 6.6 0 a3.3 3.3 0 1 0 -6.6 0zM1261.37 35.78L1262.69 37.09L1270.31 29.48L1268.99 28.16zM1266.35 28.82 a3.3 3.3 0 1 0 6.6 0 a3.3 3.3 0 1 0 -6.6 0zM1269.39 47.12L1270.1 48.84L1278.66 45.3L1277.94 43.58zM1275 44.44 a3.3 3.3 0 1 0 6.6 0 a3.3 3.3 0 1 0 -6.6 0zM1201.27 61.6 a35.6 35.6 0 1 0 71.2 0 a35.6 35.6 0 1 0 -71.2 0z" fill="#488fdb"></path><path d="M1258.57 33.38 A34.5968 34.5968 0 0 1 1250.53 94.47M1250.53 94.47 A71.1936 71.1936 0 0 0 1258.57 33.38" fill="#2672c3" fill-rule="nonzero"></path><path d="M1239.55 48.1 a7.12 7.12 0 1 0 14.24 0 a7.12 7.12 0 1 0 -14.24 0zM1237.29 75.29 a7.12 7.12 0 1 0 14.24 0 a7.12 7.12 0 1 0 -14.24 0zM1208.64 82.44 a1.78 1.78 0 1 0 3.56 0 a1.78 1.78 0 1 0 -3.56 0zM1202.3 60.19 a7.12 7.12 0 1 0 14.24 0 a7.12 7.12 0 1 0 -14.24 0zM1217.36 43.2 a7.12 7.12 0 1 0 14.24 0 a7.12 7.12 0 1 0 -14.24 0zM1223.87 61.67 a3.56 3.56 0 1 0 7.12 0 a3.56 3.56 0 1 0 -7.12 0zM1259.72 55.9 a6.05 6.05 0 1 0 12.1 0 a6.05 6.05 0 1 0 -12.1 0zM1218.25 89.46 a3.92 3.92 0 1 0 7.84 0 a3.92 3.92 0 1 0 -7.84 0zM1238.17 94.03 a2.85 2.85 0 1 0 5.7 0 a2.85 2.85 0 1 0 -5.7 0zM1253.86 33.18 a1.42 1.42 0 1 0 2.84 0 a1.42 1.42 0 1 0 -2.84 0z" fill="#2672c3" fill-rule="nonzero"></path><path d="M735.14 190.84L735.14 192.71L743.58 192.71L743.58 190.84zM740.28 191.77 a3.3 3.3 0 1 0 6.6 0 a3.3 3.3 0 1 0 -6.6 0zM732.79 204.53L732.08 206.25L746.48 212.22L747.19 210.5zM743.54 211.36 a3.3 3.3 0 1 0 6.6 0 a3.3 3.3 0 1 0 -6.6 0zM725.38 216.28L724.06 217.59L735.61 229.14L736.93 227.82zM732.97 228.48 a3.3 3.3 0 1 0 6.6 0 a3.3 3.3 0 1 0 -6.6 0zM714.04 224.29L712.31 225.01L717.44 237.38L719.16 236.66zM715 237.02 a3.3 3.3 0 1 0 6.6 0 a3.3 3.3 0 1 0 -6.6 0zM700.49 227.36L698.63 227.36L698.63 240.96L700.49 240.96zM696.26 240.96 a3.3 3.3 0 1 0 6.6 0 a3.3 3.3 0 1 0 -6.6 0zM686.8 225.01L685.08 224.29L681.16 233.74L682.89 234.46zM678.72 234.1 a3.3 3.3 0 1 0 6.6 0 a3.3 3.3 0 1 0 -6.6 0zM675.05 217.59L673.74 216.28L663.72 226.29L665.04 227.61zM661.08 226.95 a3.3 3.3 0 1 0 6.6 0 a3.3 3.3 0 1 0 -6.6 0zM667.04 206.25L666.32 204.53L650.99 210.88L651.7 212.6zM648.04 211.74 a3.3 3.3 0 1 0 6.6 0 a3.3 3.3 0 1 0 -6.6 0zM663.97 192.71L663.97 190.84L655.89 190.84L655.89 192.71zM652.59 191.77 a3.3 3.3 0 1 0 6.6 0 a3.3 3.3 0 1 0 -6.6 0zM666.32 179.02L667.04 177.29L655.25 172.41L654.54 174.13zM651.59 173.27 a3.3 3.3 0 1 0 6.6 0 a3.3 3.3 0 1 0 -6.6 0zM673.74 167.27L675.05 165.95L669.53 160.43L668.21 161.75zM665.57 161.09 a3.3 3.3 0 1 0 6.6 0 a3.3 3.3 0 1 0 -6.6 0zM685.08 159.25L686.8 158.54L682.25 147.56L680.53 148.27zM678.09 147.91 a3.3 3.3 0 1 0 6.6 0 a3.3 3.3 0 1 0 -6.6 0zM698.63 156.19L700.49 156.19L700.49 141.87L698.63 141.87zM696.26 141.87 a3.3 3.3 0 1 0 6.6 0 a3.3 3.3 0 1 0 -6.6 0zM712.31 158.54L714.04 159.25L716.03 154.44L714.31 153.73zM711.87 154.08 a3.3 3.3 0 1 0 6.6 0 a3.3 3.3 0 1 0 -6.6 0zM724.06 165.95L725.38 167.27L733.68 158.97L732.36 157.65zM729.72 158.31 a3.3 3.3 0 1 0 6.6 0 a3.3 3.3 0 1 0 -6.6 0zM732.08 177.29L732.79 179.02L747.61 172.88L746.9 171.16zM743.95 172.02 a3.3 3.3 0 1 0 6.6 0 a3.3 3.3 0 1 0 -6.6 0zM663.96 191.77 a35.6 35.6 0 1 0 71.2 0 a35.6 35.6 0 1 0 -71.2 0z" fill="#488fdb"></path><path d="M692.39 226.64 A34.5968 34.5968 0 0 1 672.9 168.19M672.9 168.19 A71.1936 71.1936 0 0 0 692.39 226.64" fill="#2672c3" fill-rule="nonzero"></path><path d="M688.36 220.85 a5.7 5.7 0 1 0 11.4 0 a5.7 5.7 0 1 0 -11.4 0zM671.87 206.57 a7.12 7.12 0 1 0 14.24 0 a7.12 7.12 0 1 0 -14.24 0zM710.44 208.52 a7.12 7.12 0 1 0 14.24 0 a7.12 7.12 0 1 0 -14.24 0zM708.52 169.23 a7.12 7.12 0 1 0 14.24 0 a7.12 7.12 0 1 0 -14.24 0zM684.2 172.97 a7.12 7.12 0 1 0 14.24 0 a7.12 7.12 0 1 0 -14.24 0zM708.57 191.46 a3.56 3.56 0 1 0 7.12 0 a3.56 3.56 0 1 0 -7.12 0zM729.69 194.67 a2.49 2.49 0 1 0 4.98 0 a2.49 2.49 0 1 0 -4.98 0zM692.75 201.38 a5.34 5.34 0 1 0 10.68 0 a5.34 5.34 0 1 0 -10.68 0zM664.32 194.8 a2.49 2.49 0 1 0 4.98 0 a2.49 2.49 0 1 0 -4.98 0zM686.97 188.86 a1.78 1.78 0 1 0 3.56 0 a1.78 1.78 0 1 0 -3.56 0z" fill="#2672c3" fill-rule="nonzero"></path></g><defs><mask id="SvgjsMask1028"><rect width="1440" height="560" fill="#ffffff"></rect></mask></defs></svg>